<svg width="125" height="22" viewBox="0 0 125 22" fill="none" xmlns="http://www.w3.org/2000/svg">
<path d="M33.5821 18V5.04H38.8201C38.9461 5.04 39.1021 5.046 39.2881 5.058C39.4741 5.064 39.6511 5.082 39.8191 5.112C40.5391 5.226 41.1391 5.472 41.6191 5.85C42.1051 6.228 42.4681 6.705 42.7081 7.281C42.9481 7.857 43.0681 8.493 43.0681 9.189C43.0681 9.891 42.9481 10.53 42.7081 11.106C42.4681 11.682 42.1051 12.159 41.6191 12.537C41.1391 12.915 40.5391 13.161 39.8191 13.275C39.6511 13.299 39.4711 13.317 39.2791 13.329C39.0931 13.341 38.9401 13.347 38.8201 13.347H35.4631V18H33.5821ZM35.4631 11.565H38.7481C38.8681 11.565 39.0001 11.559 39.1441 11.547C39.2941 11.535 39.4351 11.514 39.5671 11.484C39.9511 11.394 40.2601 11.229 40.4941 10.989C40.7281 10.743 40.8961 10.461 40.9981 10.143C41.1001 9.825 41.1511 9.507 41.1511 9.189C41.1511 8.871 41.1001 8.556 40.9981 8.244C40.8961 7.926 40.7281 7.647 40.4941 7.407C40.2601 7.161 39.9511 6.993 39.5671 6.903C39.4351 6.867 39.2941 6.843 39.1441 6.831C39.0001 6.819 38.8681 6.813 38.7481 6.813H35.4631V11.565ZM45.2472 18V4.77H47.1282V18H45.2472ZM52.7759 18.27C52.0559 18.27 51.4529 18.138 50.9669 17.874C50.4809 17.604 50.1119 17.25 49.8599 16.812C49.6139 16.368 49.4909 15.882 49.4909 15.354C49.4909 14.862 49.5779 14.43 49.7519 14.058C49.9259 13.686 50.1839 13.371 50.5259 13.113C50.8679 12.849 51.2879 12.636 51.7859 12.474C52.2179 12.348 52.7069 12.237 53.2529 12.141C53.7989 12.045 54.3719 11.955 54.9719 11.871C55.5779 11.787 56.1779 11.703 56.7719 11.619L56.0879 11.997C56.0999 11.235 55.9379 10.671 55.6019 10.305C55.2719 9.933 54.7019 9.747 53.8919 9.747C53.3819 9.747 52.9139 9.867 52.4879 10.107C52.0619 10.341 51.7649 10.731 51.5969 11.277L49.8419 10.737C50.0819 9.903 50.5379 9.24 51.2099 8.748C51.8879 8.256 52.7879 8.01 53.9099 8.01C54.7799 8.01 55.5359 8.16 56.1779 8.46C56.8259 8.754 57.2999 9.222 57.5999 9.864C57.7559 10.182 57.8519 10.518 57.8879 10.872C57.9239 11.226 57.9419 11.607 57.9419 12.015V18H56.2769V15.777L56.6009 16.065C56.1989 16.809 55.6859 17.364 55.0619 17.73C54.4439 18.09 53.6819 18.27 52.7759 18.27ZM53.1089 16.731C53.6429 16.731 54.1019 16.638 54.4859 16.452C54.8699 16.26 55.1789 16.017 55.4129 15.723C55.6469 15.429 55.7999 15.123 55.8719 14.805C55.9739 14.517 56.0309 14.193 56.0429 13.833C56.0609 13.473 56.0699 13.185 56.0699 12.969L56.6819 13.194C56.0879 13.284 55.5479 13.365 55.0619 13.437C54.5759 13.509 54.1349 13.581 53.7389 13.653C53.3489 13.719 53.0009 13.8 52.6949 13.896C52.4369 13.986 52.2059 14.094 52.0019 14.22C51.8039 14.346 51.6449 14.499 51.5249 14.679C51.4109 14.859 51.3539 15.078 51.3539 15.336C51.3539 15.588 51.4169 15.822 51.5429 16.038C51.6689 16.248 51.8609 16.416 52.1189 16.542C52.3769 16.668 52.7069 16.731 53.1089 16.731ZM67.3009 18V13.221C67.3009 12.843 67.2679 12.456 67.2019 12.06C67.1419 11.658 67.0219 11.286 66.8419 10.944C66.6679 10.602 66.4189 10.326 66.0949 10.116C65.7769 9.906 65.3599 9.801 64.8439 9.801C64.5079 9.801 64.1899 9.858 63.8899 9.972C63.5899 10.08 63.3259 10.257 63.0979 10.503C62.8759 10.749 62.6989 11.073 62.5669 11.475C62.4409 11.877 62.3779 12.366 62.3779 12.942L61.2079 12.501C61.2079 11.619 61.3729 10.842 61.7029 10.17C62.0329 9.492 62.5069 8.964 63.1249 8.586C63.7429 8.208 64.4899 8.019 65.3659 8.019C66.0379 8.019 66.6019 8.127 67.0579 8.343C67.5139 8.559 67.8829 8.844 68.1649 9.198C68.4529 9.546 68.6719 9.927 68.8219 10.341C68.9719 10.755 69.0739 11.16 69.1279 11.556C69.1819 11.952 69.2089 12.3 69.2089 12.6V18H67.3009ZM60.4699 18V8.28H62.1529V11.088H62.3779V18H60.4699ZM71.7532 18V5.04H76.9912C77.1172 5.04 77.2732 5.046 77.4592 5.058C77.6452 5.064 77.8222 5.082 77.9902 5.112C78.7102 5.226 79.3102 5.472 79.7902 5.85C80.2762 6.228 80.6392 6.705 80.8792 7.281C81.1192 7.857 81.2392 8.493 81.2392 9.189C81.2392 9.891 81.1192 10.53 80.8792 11.106C80.6392 11.682 80.2762 12.159 79.7902 12.537C79.3102 12.915 78.7102 13.161 77.9902 13.275C77.8222 13.299 77.6422 13.317 77.4502 13.329C77.2642 13.341 77.1112 13.347 76.9912 13.347H73.6342V18H71.7532ZM73.6342 11.565H76.9192C77.0392 11.565 77.1712 11.559 77.3152 11.547C77.4652 11.535 77.6062 11.514 77.7382 11.484C78.1222 11.394 78.4312 11.229 78.6652 10.989C78.8992 10.743 79.0672 10.461 79.1692 10.143C79.2712 9.825 79.3222 9.507 79.3222 9.189C79.3222 8.871 79.2712 8.556 79.1692 8.244C79.0672 7.926 78.8992 7.647 78.6652 7.407C78.4312 7.161 78.1222 6.993 77.7382 6.903C77.6062 6.867 77.4652 6.843 77.3152 6.831C77.1712 6.819 77.0392 6.813 76.9192 6.813H73.6342V11.565ZM85.6845 18.27C84.9645 18.27 84.3615 18.138 83.8755 17.874C83.3895 17.604 83.0205 17.25 82.7685 16.812C82.5225 16.368 82.3995 15.882 82.3995 15.354C82.3995 14.862 82.4865 14.43 82.6605 14.058C82.8345 13.686 83.0925 13.371 83.4345 13.113C83.7765 12.849 84.1965 12.636 84.6945 12.474C85.1265 12.348 85.6155 12.237 86.1615 12.141C86.7075 12.045 87.2805 11.955 87.8805 11.871C88.4865 11.787 89.0865 11.703 89.6805 11.619L88.9965 11.997C89.0085 11.235 88.8465 10.671 88.5105 10.305C88.1805 9.933 87.6105 9.747 86.8005 9.747C86.2905 9.747 85.8225 9.867 85.3965 10.107C84.9705 10.341 84.6735 10.731 84.5055 11.277L82.7505 10.737C82.9905 9.903 83.4465 9.24 84.1185 8.748C84.7965 8.256 85.6965 8.01 86.8185 8.01C87.6885 8.01 88.4445 8.16 89.0865 8.46C89.7345 8.754 90.2085 9.222 90.5085 9.864C90.6645 10.182 90.7605 10.518 90.7965 10.872C90.8325 11.226 90.8505 11.607 90.8505 12.015V18H89.1855V15.777L89.5095 16.065C89.1075 16.809 88.5945 17.364 87.9705 17.73C87.3525 18.09 86.5905 18.27 85.6845 18.27ZM86.0175 16.731C86.5515 16.731 87.0105 16.638 87.3945 16.452C87.7785 16.26 88.0875 16.017 88.3215 15.723C88.5555 15.429 88.7085 15.123 88.7805 14.805C88.8825 14.517 88.9395 14.193 88.9515 13.833C88.9695 13.473 88.9785 13.185 88.9785 12.969L89.5905 13.194C88.9965 13.284 88.4565 13.365 87.9705 13.437C87.4845 13.509 87.0435 13.581 86.6475 13.653C86.2575 13.719 85.9095 13.8 85.6035 13.896C85.3455 13.986 85.1145 14.094 84.9105 14.22C84.7125 14.346 84.5535 14.499 84.4335 14.679C84.3195 14.859 84.2625 15.078 84.2625 15.336C84.2625 15.588 84.3255 15.822 84.4515 16.038C84.5775 16.248 84.7695 16.416 85.0275 16.542C85.2855 16.668 85.6155 16.731 86.0175 16.731ZM100.21 18V13.221C100.21 12.843 100.177 12.456 100.111 12.06C100.051 11.658 99.9305 11.286 99.7505 10.944C99.5765 10.602 99.3275 10.326 99.0035 10.116C98.6855 9.906 98.2685 9.801 97.7525 9.801C97.4165 9.801 97.0985 9.858 96.7985 9.972C96.4985 10.08 96.2345 10.257 96.0065 10.503C95.7845 10.749 95.6075 11.073 95.4755 11.475C95.3495 11.877 95.2865 12.366 95.2865 12.942L94.1165 12.501C94.1165 11.619 94.2815 10.842 94.6115 10.17C94.9415 9.492 95.4155 8.964 96.0335 8.586C96.6515 8.208 97.3985 8.019 98.2745 8.019C98.9465 8.019 99.5105 8.127 99.9665 8.343C100.423 8.559 100.792 8.844 101.074 9.198C101.362 9.546 101.581 9.927 101.731 10.341C101.881 10.755 101.983 11.16 102.037 11.556C102.091 11.952 102.118 12.3 102.118 12.6V18H100.21ZM93.3785 18V8.28H95.0615V11.088H95.2865V18H93.3785ZM108.4 18.27C107.494 18.27 106.711 18.045 106.051 17.595C105.397 17.145 104.89 16.533 104.53 15.759C104.176 14.979 103.999 14.103 103.999 13.131C103.999 12.153 104.179 11.28 104.539 10.512C104.899 9.738 105.409 9.129 106.069 8.685C106.735 8.235 107.524 8.01 108.436 8.01C109.354 8.01 110.125 8.235 110.749 8.685C111.379 9.129 111.853 9.738 112.171 10.512C112.495 11.286 112.657 12.159 112.657 13.131C112.657 14.103 112.495 14.976 112.171 15.75C111.847 16.524 111.37 17.139 110.74 17.595C110.11 18.045 109.33 18.27 108.4 18.27ZM108.661 16.569C109.279 16.569 109.783 16.422 110.173 16.128C110.563 15.834 110.848 15.429 111.028 14.913C111.208 14.397 111.298 13.803 111.298 13.131C111.298 12.459 111.205 11.865 111.019 11.349C110.839 10.833 110.557 10.431 110.173 10.143C109.795 9.855 109.312 9.711 108.724 9.711C108.1 9.711 107.587 9.864 107.185 10.17C106.783 10.476 106.483 10.887 106.285 11.403C106.093 11.919 105.997 12.495 105.997 13.131C105.997 13.773 106.093 14.355 106.285 14.877C106.483 15.393 106.777 15.804 107.167 16.11C107.563 16.416 108.061 16.569 108.661 16.569ZM111.298 18V11.007H111.082V5.04H112.972V18H111.298ZM118.435 18.27C117.715 18.27 117.112 18.138 116.626 17.874C116.14 17.604 115.771 17.25 115.519 16.812C115.273 16.368 115.15 15.882 115.15 15.354C115.15 14.862 115.237 14.43 115.411 14.058C115.585 13.686 115.843 13.371 116.185 13.113C116.527 12.849 116.947 12.636 117.445 12.474C117.877 12.348 118.366 12.237 118.912 12.141C119.458 12.045 120.031 11.955 120.631 11.871C121.237 11.787 121.837 11.703 122.431 11.619L121.747 11.997C121.759 11.235 121.597 10.671 121.261 10.305C120.931 9.933 120.361 9.747 119.551 9.747C119.041 9.747 118.573 9.867 118.147 10.107C117.721 10.341 117.424 10.731 117.256 11.277L115.501 10.737C115.741 9.903 116.197 9.24 116.869 8.748C117.547 8.256 118.447 8.01 119.569 8.01C120.439 8.01 121.195 8.16 121.837 8.46C122.485 8.754 122.959 9.222 123.259 9.864C123.415 10.182 123.511 10.518 123.547 10.872C123.583 11.226 123.601 11.607 123.601 12.015V18H121.936V15.777L122.26 16.065C121.858 16.809 121.345 17.364 120.721 17.73C120.103 18.09 119.341 18.27 118.435 18.27ZM118.768 16.731C119.302 16.731 119.761 16.638 120.145 16.452C120.529 16.26 120.838 16.017 121.072 15.723C121.306 15.429 121.459 15.123 121.531 14.805C121.633 14.517 121.69 14.193 121.702 13.833C121.72 13.473 121.729 13.185 121.729 12.969L122.341 13.194C121.747 13.284 121.207 13.365 120.721 13.437C120.235 13.509 119.794 13.581 119.398 13.653C119.008 13.719 118.66 13.8 118.354 13.896C118.096 13.986 117.865 14.094 117.661 14.22C117.463 14.346 117.304 14.499 117.184 14.679C117.07 14.859 117.013 15.078 117.013 15.336C117.013 15.588 117.076 15.822 117.202 16.038C117.328 16.248 117.52 16.416 117.778 16.542C118.036 16.668 118.366 16.731 118.768 16.731Z" fill="#5328FF" style="fill:#5328FF;fill:color(display-p3 0.3255 0.1569 1.0000);fill-opacity:1;"/>
<g clip-path="url(#clip0_6323_1036)">
<path d="M2.08332 8.1444C1.58267 7.9282 1.15281 7.63821 0.799743 7.24423C0.249054 6.62978 0.0262607 5.91258 0.00203033 5.10419C-0.0599616 3.06173 1.50368 1.75325 2.82188 1.27664C3.61361 0.990306 4.42706 0.904619 5.23987 1.13759C6.41646 1.47515 7.16918 2.24755 7.53169 3.381C7.53609 3.39533 7.54176 3.40905 7.54837 3.42735C8.98708 2.95318 10.4488 2.60738 11.98 2.60829C13.5043 2.60921 14.9735 2.86779 16.377 3.47279C16.5847 2.68971 17.0338 2.07588 17.7056 1.63463C18.7415 0.954323 19.8709 0.812223 21.0399 1.24706C22.3918 1.7499 23.4101 2.61592 23.817 4.00398C24.132 5.07797 24.0785 6.13609 23.3585 7.08109C23.0064 7.54337 22.5614 7.8971 22.0183 8.13159C21.9849 8.14592 21.9519 8.16087 21.9192 8.17611C21.9154 8.17794 21.9138 8.18373 21.9056 8.19624C22.2773 8.83782 22.5797 9.51539 22.8235 10.2167C23.3047 11.6002 23.5429 13.0206 23.4668 14.4813C23.3651 16.4258 22.5337 18.0316 21.0403 19.3261C19.8747 20.3363 18.4923 20.9358 17.0124 21.3591C15.005 21.9333 12.9539 22.0595 10.8742 21.9744C8.93421 21.8949 7.06974 21.5173 5.29652 20.7486C4.02364 20.197 2.89205 19.4517 2.01976 18.3768C1.2211 17.3931 0.736178 16.274 0.586391 15.0344C0.295626 12.6291 0.827121 10.3793 2.01818 8.26424C2.03801 8.22887 2.05689 8.19258 2.08364 8.14318L2.08332 8.1444ZM12.0785 21.2947C13.336 21.2795 14.5862 21.1953 15.8178 20.9316C17.2251 20.6303 18.5697 20.1765 19.7756 19.3916C20.9994 18.5951 21.9239 17.5614 22.4189 16.1987C22.8223 15.0878 22.8525 13.9415 22.7065 12.7883C22.5347 11.4307 22.1303 10.1378 21.494 8.91405C20.5755 7.14848 19.2705 5.729 17.5014 4.72882C15.1136 3.37856 12.5537 3.00014 9.85056 3.49535C7.81458 3.86829 6.03853 4.7587 4.54726 6.14585C3.26904 7.33479 2.37503 8.77561 1.8127 10.4031C1.30606 11.8701 1.05149 13.3692 1.27113 14.9207C1.49644 16.513 2.24979 17.8249 3.50977 18.8607C4.56331 19.7271 5.78805 20.2811 7.10467 20.658C8.7281 21.1228 10.3937 21.2792 12.0785 21.2947Z" fill="#191918" style="fill:#191918;fill:color(display-p3 0.0980 0.0980 0.0941);fill-opacity:1;"/>
<path d="M12.0783 21.2953C10.3935 21.2797 8.72786 21.1233 7.10474 20.6586C5.78844 20.2817 4.56339 19.7276 3.50984 18.8613C2.25018 17.8254 1.49683 16.5136 1.27121 14.9212C1.05156 13.3697 1.30614 11.8706 1.81277 10.4036C2.3751 8.77584 3.26911 7.33502 4.54734 6.14638C6.03861 4.75954 7.81466 3.86882 9.85064 3.49588C12.5534 3.00097 15.1137 3.3794 17.5014 4.72935C19.2706 5.72984 20.5756 7.14901 21.4941 8.91459C22.1307 10.1383 22.5347 11.4312 22.7066 12.7888C22.8526 13.9421 22.8227 15.0883 22.4189 16.1992C21.924 17.562 20.9994 18.5957 19.7756 19.3922C18.5695 20.1771 17.2252 20.6311 15.8179 20.9321C14.5859 21.1956 13.336 21.2797 12.0786 21.295L12.0783 21.2953ZM9.62375 11.5526C9.62061 11.5001 9.61557 11.4038 9.60865 11.3077C9.5561 10.5707 9.22883 9.97119 8.60922 9.5452C7.93644 9.08261 7.20764 9.11036 6.47475 9.40066C5.84539 9.64979 5.33876 10.063 4.91237 10.5676C4.29685 11.2961 3.87518 12.1012 3.83018 13.0696C3.77291 14.2979 4.72954 15.3481 5.99361 15.4213C6.88572 15.4728 7.629 15.1432 8.27472 14.584C9.19075 13.7905 9.58819 12.7687 9.62375 11.5529V11.5526ZM20.1353 13.1565C20.1353 13.0602 20.1397 12.9632 20.1341 12.8672C20.1284 12.7711 20.1196 12.6741 20.0994 12.5802C19.8165 11.2672 19.0723 10.2615 17.8929 9.576C17.2211 9.18568 16.4847 9.07468 15.7462 9.40218C14.8304 9.80836 14.4207 10.5576 14.3959 11.4986C14.3622 12.7699 14.8282 13.8542 15.8302 14.691C16.4492 15.2079 17.1641 15.4921 18.0049 15.4225C19.0311 15.3378 20.202 14.4458 20.135 13.1565H20.1353ZM11.6223 15.0612C11.6223 15.3771 11.6462 15.6823 11.616 15.9827C11.5829 16.3126 11.189 16.5718 10.8475 16.5328C10.4199 16.4837 10.1386 16.2626 9.99633 15.8702C9.91546 15.6467 9.75057 15.5503 9.55924 15.6122C9.36477 15.675 9.27792 15.8699 9.38397 16.0888C9.48498 16.2977 9.60173 16.5075 9.75246 16.684C10.1383 17.136 10.8545 17.3095 11.4067 17.0844C11.6179 16.9984 11.8023 16.8512 11.9873 16.7389C12.1368 16.8386 12.2875 16.9704 12.4634 17.0497C12.7919 17.1979 13.146 17.1939 13.494 17.1189C14.1051 16.9872 14.4837 16.6014 14.6838 16.0422C14.7515 15.8528 14.6476 15.665 14.4717 15.6107C14.2986 15.5573 14.1218 15.6506 14.0566 15.84C13.9179 16.2437 13.6315 16.4605 13.1973 16.5099C12.78 16.5572 12.4084 16.3694 12.3533 16.0266C12.3026 15.7101 12.3139 15.3844 12.2985 15.0749C12.4298 15.0285 12.5304 14.9999 12.6252 14.9581C13.0006 14.7913 13.2983 14.5498 13.4131 14.1458C13.4981 13.8469 13.3917 13.6185 13.1063 13.4758C12.7992 13.3224 12.4672 13.2553 12.1264 13.2349C11.6865 13.2081 11.2607 13.2746 10.8648 13.4712C10.604 13.6008 10.485 13.7963 10.5558 14.0711C10.6043 14.2595 10.711 14.4458 10.8343 14.6016C11.0338 14.8532 11.329 14.9804 11.6229 15.0618L11.6223 15.0612Z" fill="#FFFEED" style="fill:#FFFEED;fill:color(display-p3 1.0000 0.9961 0.9294);fill-opacity:1;"/>
<path d="M17.3912 15.4106C17.7462 15.4427 18.0992 15.4369 18.4432 15.3356C19.0241 15.1646 19.4863 14.8352 19.8237 14.3437C19.8463 14.3104 19.8721 14.279 19.8964 14.2467C20.2488 14.3696 20.4924 14.6187 20.6824 14.9151C21.4248 16.0736 20.5452 17.3763 19.3554 17.5174C18.4331 17.6269 17.513 17.01 17.3421 16.0971C17.2993 15.869 17.2874 15.6332 17.3915 15.4106H17.3912Z" fill="#FFBDA9" style="fill:#FFBDA9;fill:color(display-p3 1.0000 0.7412 0.6627);fill-opacity:1;"/>
<path d="M4.11011 14.2477C4.45658 14.8292 4.98178 15.1838 5.63788 15.3656C5.75054 15.3967 5.87232 15.4043 5.99033 15.4067C6.20273 15.411 6.41546 15.4034 6.62818 15.4006C6.74996 15.6278 6.74241 15.8678 6.69301 16.1084C6.54227 16.8436 5.91166 17.3907 5.1473 17.5142C4.12207 17.68 3.02132 16.8113 3.09024 15.7217C3.13146 15.0719 3.47352 14.5889 4.04907 14.2596C4.06574 14.2498 4.08934 14.2513 4.1098 14.2477H4.11011Z" fill="#FFBDA9" style="fill:#FFBDA9;fill:color(display-p3 1.0000 0.7412 0.6627);fill-opacity:1;"/>
<path d="M9.62389 11.5526C9.58865 12.7684 9.19121 13.7902 8.27486 14.5837C7.62914 15.1429 6.88586 15.4726 5.99375 15.421C4.72936 15.3479 3.77305 14.2977 3.83032 13.0694C3.87532 12.1009 4.29699 11.2959 4.91251 10.5674C5.3389 10.0627 5.84553 9.64952 6.47489 9.40039C7.2081 9.1104 7.93658 9.08265 8.60936 9.54493C9.22897 9.97092 9.55624 10.5704 9.60879 11.3075C9.61571 11.4035 9.62043 11.4999 9.62389 11.5523V11.5526ZM7.53505 11.542C7.1889 11.538 6.90978 11.8042 6.90349 12.1451C6.89688 12.4866 7.17726 12.7849 7.51334 12.7943C7.85162 12.8038 8.13577 12.5232 8.1449 12.171C8.15434 11.8076 7.90102 11.5462 7.53536 11.542H7.53505Z" fill="#191918" style="fill:#191918;fill:color(display-p3 0.0980 0.0980 0.0941);fill-opacity:1;"/>
<path d="M20.1354 13.1566C20.2021 14.4461 19.0315 15.3378 18.0053 15.4225C17.1645 15.4921 16.4495 15.2079 15.8306 14.691C14.8286 13.8543 14.3623 12.7699 14.3963 11.4986C14.4211 10.5576 14.8308 9.80837 15.7466 9.40219C16.4851 9.07469 17.2215 9.18569 17.8933 9.576C19.0724 10.2612 19.8166 11.2669 20.0998 12.5802C20.12 12.6742 20.1285 12.7711 20.1344 12.8672C20.1401 12.9632 20.1357 13.0602 20.1357 13.1566H20.1354ZM17.0968 12.1658C17.0978 11.8072 16.8432 11.5447 16.4942 11.5438C16.1374 11.5431 15.8731 11.799 15.8696 12.1487C15.8661 12.5049 16.1364 12.7937 16.4757 12.7955C16.8215 12.7973 17.0959 12.5192 17.0968 12.1658Z" fill="#191918" style="fill:#191918;fill:color(display-p3 0.0980 0.0980 0.0941);fill-opacity:1;"/>
<path d="M11.6223 15.0612C11.3284 14.9798 11.0332 14.8526 10.8337 14.6011C10.7103 14.4455 10.6037 14.2589 10.5552 14.0705C10.4844 13.7957 10.6033 13.6 10.8642 13.4707C11.2601 13.2743 11.6858 13.2078 12.1258 13.2343C12.4666 13.2551 12.7985 13.3218 13.1057 13.4752C13.3911 13.6179 13.4975 13.846 13.4125 14.1452C13.2976 14.5492 12.9999 14.7907 12.6245 14.9575C12.5301 14.9996 12.4291 15.028 12.2979 15.0743C12.3133 15.3835 12.302 15.7095 12.3526 16.026C12.4077 16.3688 12.7794 16.5566 13.1966 16.5093C13.6309 16.4602 13.9172 16.2431 14.056 15.8394C14.1211 15.65 14.298 15.5567 14.4711 15.6101C14.647 15.6644 14.7511 15.8522 14.6832 16.0416C14.483 16.6008 14.1045 16.9866 13.4934 17.1183C13.1453 17.1933 12.7913 17.1973 12.4628 17.0491C12.2869 16.9698 12.1361 16.8381 11.9867 16.7383C11.8016 16.8506 11.6172 16.9982 11.4061 17.0838C10.8538 17.3089 10.1373 17.1354 9.75182 16.6835C9.60109 16.5069 9.48434 16.2971 9.38333 16.0882C9.27728 15.869 9.36413 15.6741 9.5586 15.6116C9.74993 15.55 9.91482 15.6461 9.99569 15.8696C10.1379 16.262 10.4193 16.4831 10.8469 16.5322C11.1883 16.5712 11.5823 16.3124 11.6154 15.9821C11.6456 15.6817 11.6216 15.3765 11.6216 15.0606L11.6223 15.0612Z" fill="#191918" style="fill:#191918;fill:color(display-p3 0.0980 0.0980 0.0941);fill-opacity:1;"/>
<path d="M7.53507 11.5419C7.90073 11.5459 8.15404 11.8072 8.1446 12.171C8.13548 12.5232 7.85132 12.8037 7.51304 12.7943C7.17696 12.7848 6.89658 12.4866 6.90319 12.1451C6.9098 11.8045 7.18861 11.5379 7.53475 11.5419H7.53507Z" fill="#FFFEED" style="fill:#FFFEED;fill:color(display-p3 1.0000 0.9961 0.9294);fill-opacity:1;"/>
<path d="M17.0969 12.1658C17.096 12.5192 16.8216 12.7973 16.4757 12.7955C16.1368 12.7936 15.8662 12.5052 15.8697 12.1487C15.8731 11.7989 16.1375 11.5431 16.4943 11.5437C16.8433 11.5443 17.0979 11.8072 17.0969 12.1658Z" fill="#FFFEED" style="fill:#FFFEED;fill:color(display-p3 1.0000 0.9961 0.9294);fill-opacity:1;"/>
</g>
<defs>
<clipPath id="clip0_6323_1036">
<rect width="24" height="21" fill="white" style="fill:white;fill-opacity:1;" transform="translate(0 1)"/>
</clipPath>
</defs>
</svg>
