<svg width="1212" height="216" viewBox="0 0 1212 216" fill="none" xmlns="http://www.w3.org/2000/svg">
<path d="M1211.08 45.8398V50.8798C1208.04 51.5198 1205.16 53.1998 1202.44 55.9198C1199.88 58.6398 1197.4 63.4398 1195 70.3198L1159.48 167.76L1152.04 179.04L1102.6 64.3198C1099.56 58.2398 1096.68 54.4798 1093.96 53.0398C1091.24 51.5998 1089 50.8798 1087.24 50.8798V45.8398C1091.88 46.3198 1096.68 46.7198 1101.64 47.0398C1106.76 47.1998 1111.88 47.2798 1117 47.2798C1122.92 47.2798 1128.6 47.1198 1134.04 46.7999C1139.64 46.4798 1144.84 46.1598 1149.64 45.8398V50.8798C1145.96 50.8798 1142.68 51.1198 1139.8 51.5998C1136.92 52.0798 1135 53.4398 1134.04 55.6798C1133.24 57.7598 1133.88 61.4398 1135.96 66.7198L1165.96 139.92L1164.04 140.88L1185.16 83.7598C1187.88 76.2398 1189 70.1598 1188.52 65.5198C1188.04 60.8798 1186.28 57.3598 1183.24 54.9598C1180.2 52.5598 1176.04 51.1998 1170.76 50.8798V45.8398C1173.32 45.9998 1175.88 46.1598 1178.44 46.3198C1181 46.4798 1183.48 46.6399 1185.88 46.7999C1188.28 46.7999 1190.6 46.7999 1192.84 46.7999C1196.2 46.7999 1199.48 46.7198 1202.68 46.5598C1206.04 46.3998 1208.84 46.1598 1211.08 45.8398ZM1159.48 167.76L1150.36 192C1148.92 196 1147.32 199.36 1145.56 202.08C1143.96 204.96 1142.12 207.28 1140.04 209.04C1137.64 211.12 1134.68 212.64 1131.16 213.6C1127.8 214.56 1124.04 215.04 1119.88 215.04C1116.2 215.04 1112.6 214.4 1109.08 213.12C1105.72 211.84 1102.84 209.92 1100.44 207.36C1098.2 204.8 1097.08 201.44 1097.08 197.28C1097.08 192.8 1098.6 189.2 1101.64 186.48C1104.68 183.76 1108.84 182.4 1114.12 182.4C1118.76 182.4 1122.52 183.52 1125.4 185.76C1128.44 188.16 1129.96 191.68 1129.96 196.32C1129.96 199.36 1129.08 202.08 1127.32 204.48C1125.56 206.88 1123.08 208.72 1119.88 210C1120.68 210.16 1121.4 210.24 1122.04 210.24C1122.84 210.4 1123.48 210.48 1123.96 210.48C1128.6 210.48 1132.76 208.96 1136.44 205.92C1140.12 202.88 1143.08 198.08 1145.32 191.52L1153.96 167.76H1159.48Z" fill="#479F86" style="fill:#479F86;fill:color(display-p3 0.2784 0.6235 0.5255);fill-opacity:1;"/>
<path d="M1087.8 45.8398V50.8798C1084.76 51.5198 1081.88 53.1998 1079.16 55.9198C1076.6 58.6398 1074.12 63.4398 1071.72 70.3198L1036.2 167.76L1028.76 179.04L979.32 64.3198C976.28 58.2398 973.4 54.4798 970.68 53.0398C967.96 51.5998 965.72 50.8798 963.96 50.8798V45.8398C968.6 46.3198 973.4 46.7198 978.36 47.0398C983.48 47.1998 988.6 47.2798 993.72 47.2798C999.64 47.2798 1005.32 47.1198 1010.76 46.7999C1016.36 46.4798 1021.56 46.1598 1026.36 45.8398V50.8798C1022.68 50.8798 1019.4 51.1198 1016.52 51.5998C1013.64 52.0798 1011.72 53.4398 1010.76 55.6798C1009.96 57.7598 1010.6 61.4398 1012.68 66.7198L1042.68 139.92L1040.76 140.88L1061.88 83.7598C1064.6 76.2398 1065.72 70.1598 1065.24 65.5198C1064.76 60.8798 1063 57.3598 1059.96 54.9598C1056.92 52.5598 1052.76 51.1998 1047.48 50.8798V45.8398C1050.04 45.9998 1052.6 46.1598 1055.16 46.3198C1057.72 46.4798 1060.2 46.6399 1062.6 46.7999C1065 46.7999 1067.32 46.7999 1069.56 46.7999C1072.92 46.7999 1076.2 46.7198 1079.4 46.5598C1082.76 46.3998 1085.56 46.1598 1087.8 45.8398ZM1036.2 167.76L1027.08 192C1025.64 196 1024.04 199.36 1022.28 202.08C1020.68 204.96 1018.84 207.28 1016.76 209.04C1014.36 211.12 1011.4 212.64 1007.88 213.6C1004.52 214.56 1000.76 215.04 996.6 215.04C992.92 215.04 989.32 214.4 985.8 213.12C982.44 211.84 979.56 209.92 977.16 207.36C974.92 204.8 973.8 201.44 973.8 197.28C973.8 192.8 975.32 189.2 978.36 186.48C981.4 183.76 985.56 182.4 990.84 182.4C995.48 182.4 999.24 183.52 1002.12 185.76C1005.16 188.16 1006.68 191.68 1006.68 196.32C1006.68 199.36 1005.8 202.08 1004.04 204.48C1002.28 206.88 999.8 208.72 996.6 210C997.4 210.16 998.12 210.24 998.76 210.24C999.56 210.4 1000.2 210.48 1000.68 210.48C1005.32 210.48 1009.48 208.96 1013.16 205.92C1016.84 202.88 1019.8 198.08 1022.04 191.52L1030.68 167.76H1036.2Z" fill="#479F86" style="fill:#479F86;fill:color(display-p3 0.2784 0.6235 0.5255);fill-opacity:1;"/>
<path d="M942.124 42.4795C947.084 42.4795 951.164 43.5195 954.364 45.5995C957.724 47.6795 960.204 50.3195 961.804 53.5195C963.404 56.7195 964.204 60.0795 964.204 63.5995C964.204 68.8795 962.604 73.2795 959.404 76.7995C956.364 80.3195 952.284 82.0795 947.164 82.0795C942.364 82.0795 938.444 80.7995 935.404 78.2395C932.364 75.6795 930.844 72.1595 930.844 67.6795C930.844 63.6795 931.804 60.3195 933.724 57.5995C935.804 54.8795 938.124 52.7195 940.684 51.1195C938.924 50.1595 936.924 49.8395 934.684 50.1595C930.844 50.4795 927.324 51.8395 924.124 54.2395C920.924 56.6395 918.204 59.5995 915.964 63.1195C913.724 66.6395 911.964 70.3995 910.684 74.3995C909.564 78.3995 909.004 82.2395 909.004 85.9195V145.199C909.004 153.039 911.004 158.319 915.004 161.039C919.004 163.599 924.844 164.88 932.524 164.88V169.919C928.844 169.759 923.484 169.599 916.444 169.439C909.564 169.119 902.364 168.96 894.844 168.96C888.604 168.96 882.364 169.119 876.124 169.439C870.044 169.599 865.484 169.759 862.444 169.919V164.88C868.364 164.88 872.524 163.679 874.924 161.279C877.484 158.879 878.764 154.319 878.764 147.599V71.9995C878.764 64.7995 877.564 59.5195 875.164 56.1595C872.924 52.6395 868.684 50.8795 862.444 50.8795V45.8395C867.564 46.3195 872.524 46.5595 877.324 46.5595C883.244 46.5595 888.844 46.3195 894.124 45.8395C899.564 45.1995 904.524 44.3195 909.004 43.1995V68.1595C910.924 63.6795 913.404 59.5195 916.444 55.6795C919.644 51.8395 923.404 48.7195 927.724 46.3195C932.204 43.7595 937.004 42.4795 942.124 42.4795Z" fill="#479F86" style="fill:#479F86;fill:color(display-p3 0.2784 0.6235 0.5255);fill-opacity:1;"/>
<path d="M773.226 171.599C766.346 171.599 760.506 170.319 755.706 167.759C750.906 165.039 747.306 161.439 744.906 156.959C742.506 152.319 741.306 147.199 741.306 141.599C741.306 134.719 742.906 129.119 746.106 124.799C749.306 120.32 753.386 116.799 758.346 114.239C763.466 111.519 768.826 109.279 774.426 107.519C780.026 105.599 785.306 103.839 790.266 102.239C795.226 100.479 799.306 98.4795 802.506 96.2395C805.706 93.9995 807.306 91.0395 807.306 87.3595V69.8395C807.306 64.7195 806.506 60.5595 804.906 57.3595C803.466 53.9995 801.226 51.5195 798.186 49.9195C795.306 48.1595 791.626 47.2795 787.146 47.2795C783.786 47.2795 780.266 47.7595 776.586 48.7195C772.906 49.6795 769.866 51.5195 767.466 54.2395C771.626 55.3595 774.826 57.4395 777.066 60.4795C779.466 63.5195 780.666 67.1995 780.666 71.5195C780.666 76.4795 778.986 80.3995 775.626 83.2795C772.426 85.9995 768.346 87.3595 763.386 87.3595C758.106 87.3595 754.106 85.6795 751.386 82.3195C748.666 78.9595 747.306 75.0395 747.306 70.5595C747.306 66.0795 748.426 62.3995 750.666 59.5195C752.906 56.4795 756.026 53.7595 760.026 51.3595C764.026 48.6395 769.146 46.4795 775.386 44.8795C781.626 43.2795 788.426 42.4795 795.786 42.4795C802.826 42.4795 809.066 43.2795 814.506 44.8795C819.946 46.3195 824.586 48.9595 828.426 52.7995C832.266 56.4795 834.746 61.0395 835.866 66.4795C836.986 71.9195 837.546 78.5595 837.546 86.3995V152.16C837.546 156.16 838.026 159.039 838.986 160.799C839.946 162.399 841.466 163.199 843.546 163.199C845.146 163.199 846.666 162.799 848.106 161.999C849.546 161.199 851.146 160.079 852.906 158.639L855.546 162.719C852.026 165.439 848.346 167.599 844.506 169.199C840.666 170.799 836.026 171.599 830.586 171.599C824.986 171.599 820.506 170.799 817.146 169.199C813.946 167.599 811.546 165.279 809.946 162.239C808.506 159.199 807.706 155.6 807.546 151.439C803.706 157.84 798.986 162.799 793.386 166.319C787.786 169.839 781.066 171.599 773.226 171.599ZM787.626 158.16C791.466 158.16 794.986 157.119 798.186 155.039C801.546 152.959 804.586 149.839 807.306 145.679V97.1995C805.706 99.5995 803.386 101.759 800.346 103.679C797.466 105.599 794.346 107.52 790.986 109.439C787.626 111.359 784.426 113.6 781.386 116.16C778.506 118.56 776.026 121.599 773.946 125.279C772.026 128.799 771.066 133.359 771.066 138.959C771.066 145.199 772.586 149.999 775.626 153.359C778.666 156.559 782.666 158.16 787.626 158.16Z" fill="#479F86" style="fill:#479F86;fill:color(display-p3 0.2784 0.6235 0.5255);fill-opacity:1;"/>
<path d="M608.486 42.4795C614.726 42.4795 619.926 43.3595 624.086 45.1195C628.406 46.8795 631.766 49.1195 634.166 51.8395C637.046 54.8795 639.046 58.9595 640.166 64.0795C641.286 69.0395 641.846 75.3595 641.846 83.0395V147.599C641.846 154.319 642.966 158.879 645.206 161.279C647.606 163.679 651.606 164.88 657.206 164.88V169.919C654.326 169.759 650.006 169.599 644.246 169.439C638.486 169.119 632.886 168.96 627.446 168.96C621.686 168.96 616.086 169.119 610.646 169.439C605.366 169.599 601.366 169.759 598.646 169.919V164.88C603.286 164.88 606.566 163.679 608.486 161.279C610.566 158.879 611.606 154.319 611.606 147.599V74.8795C611.606 70.5595 611.286 66.7195 610.646 63.3595C610.006 59.8395 608.646 57.1195 606.566 55.1995C604.486 53.1195 601.286 52.0795 596.966 52.0795C592.006 52.0795 587.526 53.5195 583.526 56.3995C579.526 59.2795 576.326 63.2795 573.926 68.3995C571.686 73.3595 570.566 78.9595 570.566 85.1995V147.599C570.566 154.319 571.526 158.879 573.446 161.279C575.366 163.679 578.726 164.88 583.526 164.88V169.919C580.806 169.759 576.806 169.599 571.526 169.439C566.406 169.119 561.126 168.96 555.686 168.96C549.766 168.96 543.766 169.119 537.686 169.439C531.606 169.599 527.046 169.759 524.006 169.919V164.88C529.926 164.88 534.086 163.679 536.486 161.279C539.046 158.879 540.326 154.319 540.326 147.599V71.9995C540.326 64.7995 539.126 59.5195 536.726 56.1595C534.486 52.6395 530.246 50.8795 524.006 50.8795V45.8395C529.126 46.3195 534.086 46.5595 538.886 46.5595C544.806 46.5595 550.406 46.3195 555.686 45.8395C561.126 45.1995 566.086 44.3195 570.566 43.1995V67.1995C574.566 58.3995 579.926 52.0795 586.646 48.2395C593.366 44.3995 600.646 42.4795 608.486 42.4795ZM680.726 42.4795C686.966 42.4795 692.166 43.3595 696.326 45.1195C700.646 46.8795 704.006 49.1195 706.406 51.8395C709.286 54.8795 711.286 58.9595 712.406 64.0795C713.526 69.0395 714.086 75.3595 714.086 83.0395V147.599C714.086 154.319 715.286 158.879 717.686 161.279C720.246 163.679 724.486 164.88 730.406 164.88V169.919C727.526 169.759 723.046 169.599 716.966 169.439C711.046 169.119 705.286 168.96 699.686 168.96C693.926 168.96 688.326 169.119 682.886 169.439C677.606 169.599 673.606 169.759 670.886 169.919V164.88C675.526 164.88 678.806 163.679 680.726 161.279C682.806 158.879 683.846 154.319 683.846 147.599V74.8795C683.846 70.5595 683.446 66.7195 682.646 63.3595C682.006 59.8395 680.566 57.1195 678.326 55.1995C676.086 53.1195 672.726 52.0795 668.246 52.0795C663.286 52.0795 658.806 53.5995 654.806 56.6395C650.806 59.6795 647.606 63.7595 645.206 68.8795C642.966 73.8395 641.766 79.4395 641.606 85.6795L640.406 68.3995C644.726 58.4795 650.486 51.6795 657.686 47.9995C664.886 44.3195 672.566 42.4795 680.726 42.4795Z" fill="#479F86" style="fill:#479F86;fill:color(display-p3 0.2784 0.6235 0.5255);fill-opacity:1;"/>
<path d="M464.252 42.4795C478.332 42.4795 489.372 46.7195 497.372 55.1995C505.372 63.6795 509.372 77.1995 509.372 95.7595H428.492L428.252 91.1995H481.532C481.852 83.3595 481.372 76.1595 480.092 69.5995C478.812 62.8795 476.732 57.5195 473.852 53.5195C471.132 49.5195 467.532 47.5195 463.052 47.5195C456.972 47.5195 451.692 51.1195 447.212 58.3195C442.732 65.3595 439.932 76.9595 438.812 93.1195L439.772 94.5595C439.452 96.6395 439.212 98.8795 439.052 101.279C439.052 103.679 439.052 106.079 439.052 108.479C439.052 119.519 440.652 128.639 443.852 135.839C447.052 143.039 451.212 148.319 456.332 151.679C461.452 155.039 466.732 156.719 472.172 156.719C475.852 156.719 479.612 156.159 483.452 155.039C487.292 153.919 491.052 151.84 494.732 148.799C498.412 145.759 501.772 141.439 504.812 135.839L509.372 137.759C507.612 143.359 504.652 148.959 500.492 154.559C496.492 159.999 491.292 164.479 484.892 167.999C478.492 171.519 470.972 173.279 462.332 173.279C451.452 173.279 441.852 170.88 433.532 166.079C425.212 161.279 418.732 154.16 414.092 144.719C409.452 135.119 407.132 123.439 407.132 109.679C407.132 95.1195 409.532 82.8795 414.332 72.9595C419.292 63.0395 426.092 55.5195 434.732 50.3995C443.372 45.1195 453.212 42.4795 464.252 42.4795Z" fill="#479F86" style="fill:#479F86;fill:color(display-p3 0.2784 0.6235 0.5255);fill-opacity:1;"/>
<path d="M339.924 42.4795C346.644 42.4795 352.404 43.4395 357.204 45.3595C362.004 47.2795 365.524 48.9595 367.764 50.3995C373.204 54.3995 376.484 51.8395 377.604 42.7195H382.884C382.564 47.3595 382.324 52.8795 382.164 59.2795C382.004 65.5195 381.924 73.9195 381.924 84.4795H376.644C375.844 78.5595 374.324 72.7995 372.084 67.1995C369.844 61.5995 366.564 56.9595 362.244 53.2795C357.924 49.4395 352.244 47.5195 345.204 47.5195C340.244 47.5195 336.084 48.9595 332.724 51.8395C329.524 54.7195 327.924 58.7995 327.924 64.0795C327.924 68.8795 329.364 73.1195 332.244 76.7995C335.124 80.3195 338.804 83.6795 343.284 86.8795C347.924 89.9195 352.724 93.2795 357.684 96.9595C363.444 100.799 368.564 104.719 373.044 108.719C377.524 112.559 381.124 116.879 383.844 121.679C386.564 126.319 387.924 131.84 387.924 138.24C387.924 145.6 385.844 151.919 381.684 157.199C377.684 162.319 372.324 166.319 365.604 169.199C359.044 171.919 351.764 173.279 343.764 173.279C339.444 173.279 335.524 172.88 332.004 172.079C328.484 171.279 325.364 170.24 322.644 168.96C320.564 167.84 318.644 166.799 316.884 165.839C315.284 164.879 313.604 164.079 311.844 163.439C310.244 162.639 308.804 162.959 307.524 164.399C306.404 165.839 305.524 168.239 304.884 171.599H299.604C299.924 166.479 300.164 160.24 300.324 152.88C300.484 145.52 300.564 135.759 300.564 123.599H305.844C306.964 132.399 308.644 140.16 310.884 146.88C313.284 153.439 316.724 158.639 321.204 162.479C325.684 166.159 331.444 167.999 338.484 167.999C341.524 167.999 344.404 167.359 347.124 166.079C350.004 164.799 352.324 162.799 354.084 160.079C356.004 157.359 356.964 153.679 356.964 149.039C356.964 141.999 354.564 136.159 349.764 131.519C344.964 126.879 338.964 121.919 331.764 116.639C326.324 112.639 321.204 108.719 316.404 104.879C311.764 101.039 307.924 96.7195 304.884 91.9195C302.004 87.1195 300.564 81.4395 300.564 74.8795C300.564 67.6795 302.404 61.7595 306.084 57.1195C309.764 52.3195 314.564 48.7195 320.484 46.3195C326.564 43.7595 333.044 42.4795 339.924 42.4795Z" fill="#479F86" style="fill:#479F86;fill:color(display-p3 0.2784 0.6235 0.5255);fill-opacity:1;"/>
<path d="M220.982 42.4795C232.022 42.4795 241.782 44.7195 250.262 49.1995C258.902 53.5195 265.702 60.4795 270.662 70.0795C275.782 79.6795 278.342 92.3195 278.342 107.999C278.342 123.679 275.782 136.319 270.662 145.919C265.702 155.519 258.902 162.479 250.262 166.799C241.782 171.12 232.022 173.279 220.982 173.279C209.942 173.279 200.102 171.12 191.462 166.799C182.822 162.479 176.022 155.519 171.062 145.919C166.102 136.319 163.622 123.679 163.622 107.999C163.622 92.3195 166.102 79.6795 171.062 70.0795C176.022 60.4795 182.822 53.5195 191.462 49.1995C200.102 44.7195 209.942 42.4795 220.982 42.4795ZM220.982 47.2795C213.462 47.2795 207.302 52.0795 202.502 61.6795C197.862 71.1195 195.542 86.5595 195.542 107.999C195.542 129.439 197.862 144.879 202.502 154.319C207.302 163.759 213.462 168.479 220.982 168.479C228.342 168.479 234.422 163.759 239.222 154.319C244.022 144.879 246.422 129.439 246.422 107.999C246.422 86.5595 244.022 71.1195 239.222 61.6795C234.422 52.0795 228.342 47.2795 220.982 47.2795Z" fill="#479F86" style="fill:#479F86;fill:color(display-p3 0.2784 0.6235 0.5255);fill-opacity:1;"/>
<path d="M0 0C4 0.159998 9.12 0.31999 15.36 0.479988C21.6 0.639986 27.84 0.719986 34.08 0.719986C41.92 0.719986 49.36 0.639986 56.4 0.479988C63.44 0.31999 68.4 0.23999 71.28 0.23999C85.68 0.23999 97.52 1.99999 106.8 5.51998C116.24 8.87999 123.28 13.68 127.92 19.92C132.56 26.16 134.88 33.52 134.88 42C134.88 47.28 133.84 52.72 131.76 58.32C129.68 63.76 126.08 68.8 120.96 73.44C115.84 78.08 108.8 81.92 99.84 84.96C91.04 87.84 79.76 89.28 66 89.28H42.96V84.48H63.6C73.68 84.48 81.36 82.72 86.64 79.2C92.08 75.52 95.68 70.72 97.44 64.8C99.36 58.72 100.32 52 100.32 44.64C100.32 32 97.84 22.24 92.88 15.36C87.92 8.31999 79.36 4.8 67.2 4.8C60.64 4.8 56.32 6.15999 54.24 8.88C52.32 11.6 51.36 17.12 51.36 25.44V144.48C51.36 150.24 51.84 154.56 52.8 157.44C53.76 160.32 55.52 162.24 58.08 163.2C60.8 164.16 64.72 164.8 69.84 165.12V169.92C65.84 169.6 60.72 169.44 54.48 169.44C48.24 169.28 41.92 169.2 35.52 169.2C28.32 169.2 21.6 169.28 15.36 169.44C9.12 169.44 4 169.6 0 169.92V165.12C5.28 164.8 9.2 164.16 11.76 163.2C14.48 162.24 16.24 160.32 17.04 157.44C18 154.56 18.48 150.24 18.48 144.48V25.44C18.48 19.52 18 15.2 17.04 12.48C16.24 9.59999 14.48 7.67999 11.76 6.71999C9.2 5.59999 5.28 4.95999 0 4.8V0ZM42.96 85.2C50.48 85.52 56.72 85.92 61.68 86.4C66.8 86.72 71.12 87.04 74.64 87.36C78.32 87.68 81.6 88.08 84.48 88.56C97.76 89.84 107.52 92.96 113.76 97.92C120.16 102.72 124.4 110.08 126.48 120L132 144.72C133.44 151.28 134.96 156 136.56 158.88C138.32 161.6 140.8 162.88 144 162.72C146.24 162.72 148.16 162.16 149.76 161.04C151.36 159.76 152.96 158.08 154.56 156L157.92 158.88C153.92 163.84 149.68 167.52 145.2 169.92C140.72 172.16 135.04 173.28 128.16 173.28C120.48 173.28 114 171.52 108.72 168C103.44 164.32 99.84 157.44 97.92 147.36L93.36 123.36C92.08 116.64 90.56 110.72 88.8 105.6C87.2 100.48 84.96 96.48 82.08 93.6C79.2 90.72 74.96 89.28 69.36 89.28H43.44L42.96 85.2Z" fill="#479F86" style="fill:#479F86;fill:color(display-p3 0.2784 0.6235 0.5255);fill-opacity:1;"/>
</svg>
