<svg width="1024" height="1024" viewBox="0 0 1024 1024" fill="none" xmlns="http://www.w3.org/2000/svg">
<g clip-path="url(#clip0_21_12)">
<rect width="1024" height="1024" fill="#479F96"/>
<g clip-path="url(#clip1_21_12)">
<path d="M533.263 275.679C550.783 256.322 572.566 240.313 582.356 214.729C585.295 207.033 589.558 196.341 584.972 191.524C579.827 186.119 568.951 190.437 561.66 194.021C516.506 216.139 480.76 247.715 459.947 294.742C453.567 309.135 452.832 325.555 443.925 338.656C431.608 356.75 418.262 374.139 405.474 391.88C400.271 399.106 395.303 406.479 390.246 413.793C390.246 404.599 392.363 396.668 394.685 388.825C395.508 386.035 396.919 383.421 398.036 380.748C424.7 316.537 429.256 251.417 406.503 185.062C404.357 178.835 401.153 173.43 396.243 169.289C387.659 162.033 381.986 163.943 379.899 174.781C374.607 202.451 369.58 230.15 364.436 257.849C363.495 260.17 363.054 262.226 363.142 264.076C359.262 283.492 357.645 303.055 361.202 322.823C360.203 342.915 362.437 362.712 368.933 381.717C373.049 393.789 373.696 405.451 370.08 417.611C366.993 427.892 364.465 438.349 361.555 448.688C354.323 474.361 339.772 504.028 328.718 515.278C336.861 476.27 332.893 438.349 324.338 400.575C318.87 376.371 314.902 351.785 302.761 329.55C299.116 322.882 294.677 318.388 286.563 320.18C278.949 321.883 276.862 328.346 276.509 334.69C275.716 347.879 271.865 360.803 271.306 373.698C269.395 418.61 272.041 463.081 291.002 505.144C303.819 533.519 298.939 560.924 284.652 587.683C275.951 603.986 266.544 619.877 257.372 635.914C240.38 665.611 224.418 695.895 208.779 726.355C198.372 746.623 189.171 767.537 179.558 788.245C170.886 806.897 162.449 825.667 153.894 844.377C151.837 841.323 152.072 838.914 151.807 836.564C148.162 803.842 169.416 777.23 173.973 746.535C173.973 746.476 174.002 746.447 174.002 746.388C177.383 732.553 183.056 719.188 182.556 704.56C188.259 689.286 188.642 672.954 191.287 657.151C196.344 626.985 198.049 596.407 194.991 565.771C194.139 557.164 190.2 550.115 181.41 548.881C174.09 547.853 166.065 550.085 162.625 557.517C157.54 568.473 152.336 579.283 149.808 591.561C143.488 622.168 139.519 652.922 138.314 684.087C138.196 686.848 138.196 690.608 134.198 690.52C131.406 690.461 130.935 687.435 130.347 684.997C125.644 665.17 119.235 645.872 112.121 626.779C104.801 607.158 97.3345 587.566 85.0466 570.353C81.078 564.801 76.6391 560.719 68.0551 562.158C53.0921 564.655 48.5061 569.766 49.2704 590.444C50.1817 614.854 56.4727 638.499 61.529 662.233C69.819 701.329 83.2828 738.486 105.86 771.943C136.227 816.913 137.373 866.613 121.411 915.373C104.743 966.277 86.6634 1016.71 72.1413 1068.29C59.2066 1114.26 54.0034 1162.05 40.4513 1207.93C33.3373 1231.96 30.1036 1257.13 19.0209 1280.25C21.4903 1242.59 23.1071 1205.17 14.4056 1168.19C13.6707 1150.74 18.7564 1134.91 26.0468 1119.11C44.7727 1078.48 50.7109 1035.77 43.4204 991.479C42.1858 983.989 39.0403 976.763 30.7503 975.324C21.9018 973.797 17.9333 981.052 14.4938 987.514C12.73 990.833 12.0832 994.828 11.2307 998.588C8.49681 1010.57 5.88047 1022.62 3.20534 1034.63C2.00007 1034.45 0.794787 1034.25 -0.381093 1034.07C-0.234108 1011.25 -0.175306 988.425 -2.96802 965.778C-1.88033 940.105 -3.76175 914.815 -10.4643 889.818C-13.1394 879.831 -19.4597 874.103 -28.2494 873.134C-37.4213 872.135 -42.4776 879.89 -46.5344 887.498C-56.206 905.621 -57.764 925.566 -58.8811 945.363C-59.3221 953.089 -63.5846 961.812 -56.7057 969.097C-55.765 1002.58 -47.9454 1034.89 -32.8648 1064.3C-17.6959 1093.9 -5.1434 1123.84 0.383235 1156.62C0.177456 1168.42 6.17445 1180.41 -0.557468 1192.04C-8.55345 1165.72 -21.9585 1142.11 -40.0082 1121.72C-49.0625 1111.47 -58.058 1099.87 -72.5507 1095.64C-84.0743 1092.26 -93.8635 1093.26 -99.8899 1105.07C-105.24 1115.52 -102.418 1136.79 -94.863 1141.78C-93.2756 1142.81 -90.4535 1141.99 -88.1605 1141.93C-88.2487 1134.85 -91.9821 1128.33 -90.9238 1120.96C-88.9836 1107.48 -80.9582 1104.01 -69.5816 1113.06C-48.0042 1130.21 -32.1886 1152.03 -20.1653 1176.74C-18.0193 1181.14 -15.5205 1185.37 -13.0806 1189.63C-13.9037 1190.31 -14.7562 1191.22 -15.5793 1192.42C-17.3432 1196.68 -16.6082 1200.44 -13.2276 1203.64C-11.2874 1204.41 -9.58235 1205.26 -8.02431 1206.26C-5.84893 1215.22 -3.67355 1224.18 -1.49817 1233.13C-2.1449 1234.9 -2.93862 1236.69 -3.87932 1238.54C-3.40897 1241.98 -5.37858 1244.38 -7.0836 1246.91C-7.43637 1246.82 -7.81853 1246.73 -8.25949 1246.76C-9.1414 1232.14 -18.8718 1222 -27.5439 1211.99C-46.2698 1190.37 -65.1721 1168.92 -82.3693 1146.04C-83.6628 1144.31 -86.0733 1143.43 -87.9841 1142.19C-90.3653 1148.6 -92.5995 1155 -87.4256 1161.17C-79.9881 1170.01 -73.7854 1180.09 -66.1128 1188.4C-46.211 1210.02 -25.1628 1230.46 -12.2281 1257.43C-0.292898 1288.74 -1.20421 1320.87 -6.05471 1353.24C-9.55296 1358.94 -7.64215 1365.93 -10.0527 1371.69C-28.2495 1414.87 -46.0052 1458.25 -67.7296 1499.82C-79.1356 1521.67 -93.2462 1542.23 -103.212 1564.64C-110.12 1580.15 -115.911 1596.48 -126.494 1609.41C-156.803 1646.48 -184.965 1686.1 -229.413 1708.6C-231.765 1709.81 -233.734 1711.77 -232.5 1714.33C-231.559 1716.3 -228.443 1719.32 -227.649 1718.97C-219.859 1715.45 -209.717 1721.88 -203.132 1712.3C-199.722 1707.37 -194.107 1703.64 -188.904 1700.32C-160.242 1681.99 -139.311 1655.55 -120.321 1628.74C-100.39 1600.57 -80.9583 1571.46 -68.2881 1538.62C-61.5856 1521.17 -49.3565 1505.9 -42.507 1488.83C-34.4522 1468.8 -23.6341 1450.38 -14.5504 1431.02C-5.70195 1412.14 11.1425 1398.89 24.2536 1382.97C26.7524 1381.65 29.0159 1380.12 29.2805 1376.92C37.8644 1367.46 48.2709 1360.67 60.0885 1355.94C77.7267 1348.9 96.188 1344.99 114.796 1341.73C128.054 1351.24 143.282 1345.05 157.187 1345.55C181.381 1346.43 206.721 1349.01 229.327 1335.59C240.968 1333.09 250.758 1327.16 260.194 1320.02C265.397 1316.09 268.895 1312.18 267.514 1305.54C266.073 1298.55 260.752 1293.85 254.55 1293.29C245.437 1292.47 236.412 1289.24 227.593 1289.65C186.26 1291.62 145.31 1296.79 105.536 1308.83C103.273 1309.51 99.8333 1313.06 100.509 1306.74C118.236 1296.05 137.256 1289.18 157.628 1285.21C169.945 1282.8 182.262 1279.19 193.816 1274.26C233.795 1257.25 272.1 1237.16 304.936 1208.23C314.667 1199.65 324.956 1191.48 329.924 1178.32C334.333 1166.6 330.129 1163.4 319.194 1162.9C299.645 1162.02 282.212 1170.36 264.927 1176.8C234.001 1188.31 203.84 1202.15 176.501 1221.21C170.004 1223.71 169.445 1220.27 170.504 1215.22C179.529 1200.82 191.817 1188.52 197.52 1172.04C201.429 1166.87 203.605 1160.99 204.722 1154.65C205.751 1148.69 206.427 1142.93 200.283 1139.02C194.139 1135.12 189.024 1138.11 184.173 1141.61C175.972 1147.51 167.887 1153.59 159.744 1159.55C155.629 1162.58 150.955 1166.31 155.952 1171.19C160.303 1175.42 163.684 1170.19 166.77 1167.37C173.884 1160.88 180.44 1153.18 191.787 1156.97C178.147 1184.17 158.892 1207.4 140.254 1231.17C127.143 1247.88 108.505 1260.77 103.096 1283.01C88.78 1282.6 84.9878 1298.9 71.524 1303.72C73.2878 1299.58 74.0815 1297.32 75.1398 1295.2C94.336 1256.69 118.618 1221.59 146.045 1188.52C149.132 1184.82 156.57 1180.14 150.867 1175.47C145.516 1171.07 139.578 1177.68 136.962 1182.2C130.083 1194.04 118.971 1202.03 111.151 1212.98C94.8358 1235.87 78.5792 1258.6 66.4971 1284.21C54.2385 1310.15 43.7732 1337.65 18.0214 1354.42C12.5242 1348.6 19.9616 1346.02 21.1669 1341.85C28.0752 1317.61 35.2775 1293.47 41.8036 1269.15C54.1504 1223.06 68.9958 1177.65 76.7566 1130.39C79.2554 1115.11 81.6071 1097.78 90.2499 1085.94C110.24 1058.66 131.112 1031.66 158.833 1010.81C174.796 998.794 191.14 994.681 210.601 996.825C237.823 999.822 263.78 1011.19 292.648 1004.84C308.14 1001.44 321.898 994.946 336.567 990.275C350.56 985.81 362.819 973.885 362.055 964.221C360.82 948.212 348.767 945.716 336.156 944.1C332.775 943.66 329.424 942.543 326.073 942.543C293.56 942.661 261.105 943.425 229.327 951.473C226.064 951.179 222.801 950.885 216.98 950.327C231.091 941.633 242.673 934.789 257.313 931.235C283.035 924.978 308.258 915.99 333.01 906.443C376.165 889.759 419.085 872.341 455.184 842.145C463.651 835.066 461.74 828.868 453.656 823.493C448.687 820.203 442.867 819.322 436.841 819.322C409.384 819.351 384.249 828.369 359.526 839.002C322.721 854.834 287.886 874.221 255.461 897.866C252.58 898.865 249.67 899.717 246.759 900.451C248.229 897.955 249.405 895.282 249.964 892.286C250.669 887.321 252.874 883.033 255.931 879.126C273.452 856.685 286.063 831.365 296.558 805.223C301.173 793.738 307.964 779.874 295.147 768.77C287.033 761.75 273.57 767.478 259.812 781.518C234.854 806.985 218.45 837.827 202.752 869.286C186.731 901.421 181.263 937.756 162.684 968.833C154.541 977.527 146.398 986.192 138.285 994.887C126.291 1005.46 114.326 1016.01 103.861 1025.23C109.858 993.624 123.321 960.755 136.491 928.121C157.951 874.926 180.616 822.112 205.31 770.357C215.334 749.355 224.8 726.59 244.937 711.668C251.14 707.086 258.224 703.268 261.987 695.983C266.073 695.454 268.748 693.016 271.776 690.255C291.09 672.455 312.638 662.674 339.595 671.779C361.731 679.24 384.896 679.886 407.737 677.625C421.495 676.244 435.929 673.718 447.188 663.79C459.094 653.274 457.095 637.824 442.25 632.507C432.872 629.159 423.259 626.427 412.47 626.632C398.154 626.926 383.691 626.427 368.581 627.69C370.697 622.226 374.284 620.2 377.606 618.584C409.942 602.987 440.75 585.01 468.854 562.51C487.903 547.236 507.187 532.168 521.327 511.9C531.028 497.977 525.766 487.902 508.834 486.257C494.165 484.847 480.319 490.105 467.796 495.157C430.167 510.284 394.715 529.876 364.877 558.134C357.116 560.807 353.294 568.209 347.915 573.378C333.481 587.301 317.694 600.402 308.934 619.26C297.881 631.743 292.648 649.132 276.627 657.445C272.335 658.796 268.601 660.794 265.397 663.379C266.308 658.385 267.778 653.392 267.514 648.31C282.477 624.606 297.528 600.96 312.403 577.226C335.568 540.186 359.879 503.734 381.133 465.607C390.57 448.659 402.358 437.438 419.526 430.418C425.787 427.863 431.931 425.102 438.134 422.429C460.446 421.782 480.642 412.353 500.162 403.806C519.093 395.522 539.201 386.652 552.576 368.998C554.428 368.47 556.663 368.411 558.074 367.295C563.806 362.801 572.037 358.218 570.156 350.346C568.01 341.358 558.162 343.678 551.254 343.443C527.501 342.738 505.13 349.524 482.847 356.691C465.532 362.242 450.128 371.818 434.107 380.336C434.489 377.634 435.488 376.019 436.517 374.403C461.74 334.749 502.308 309.928 533.263 275.679ZM540.906 221.808C544.169 219.928 547.755 214.142 552.018 218.871C555.546 222.807 553.811 227.83 551.165 232.471C542.846 247.04 530.881 258.584 520.063 271.067C516.595 275.062 512.185 278.234 507.511 281.231C516.624 266.133 530.911 254.53 537.613 237.729C512.479 252.562 496.869 277.089 475.38 295.624C489.05 263.695 511.009 239.109 540.906 221.808ZM122.41 778.728C108.741 751.176 91.3081 725.709 82.4597 695.513C74.5519 668.548 66.6441 641.701 62.6755 613.826C61.2938 604.103 60.5883 594.41 62.3521 584.746C62.9695 581.397 65.0272 578.019 68.4667 576.962C73.0232 575.552 73.8463 580.193 75.6102 582.778C95.6001 612.416 104.008 646.753 114.414 680.18C117.53 690.196 120.147 700.565 120.029 711.433C114.679 712.285 115.619 708.173 114.885 705.97C107.094 681.972 99.4805 657.886 91.6903 633.888C90.7496 630.98 91.0142 625.927 85.9579 627.249C81.6071 628.395 82.3421 632.86 83.3122 636.003C90.7202 660.206 98.481 684.322 105.948 708.525C113.003 731.437 119.794 754.436 126.702 777.406C125.262 777.876 123.821 778.287 122.41 778.728ZM-12.1693 1020.09C-21.6645 992.39 -18.8718 963.134 -25.104 935.024C-32.6296 973.209 -25.3979 1011.22 -24.3984 1049.35C-39.6261 1023.29 -44.1532 994.74 -47.1811 965.807C-49.2977 942.279 -48.9743 919.103 -37.7447 897.455C-35.9515 893.989 -34.3346 889.936 -29.5135 890.347C-25.2509 890.699 -24.957 894.841 -23.6341 897.866C-15.109 917.605 -16.7258 938.901 -14.1389 959.521C-13.4628 964.808 -12.816 970.125 -12.1693 975.412C-12.1693 990.305 -12.1693 1005.2 -12.1693 1020.09ZM212.747 1232.99C219.009 1229.23 225.652 1226.08 231.855 1222.24C235.265 1220.12 241.439 1218.04 238.205 1212.81C235.53 1208.46 231.297 1212.66 228.034 1214.45C210.484 1224.06 192.934 1233.63 174.796 1243.56C185.232 1222.82 265.662 1184.17 307.788 1179.06C298.498 1209.55 219.479 1254.93 142.312 1276.67C163.154 1257.98 189.024 1247.23 212.747 1232.99ZM133.875 1314.7C165.918 1307.36 198.725 1308.01 231.12 1304.6C236.882 1303.98 244.584 1304.13 246.319 1310.27C248.229 1317 240.527 1317.73 235.736 1319.67C228.592 1322.55 221.478 1325.54 214.364 1328.48C183.233 1335.06 151.631 1330.18 120.323 1332.18C116.472 1332.42 112.65 1332.89 108.829 1333.27C92.925 1332.24 78.2559 1337.65 63.1164 1341.52C84.929 1327.78 109.005 1320.4 133.875 1314.7ZM13.2591 1052.93C13.3767 1051.02 13.6707 1049.08 14.2586 1047.17C14.9054 1028.81 16.9337 1010.84 28.8395 992.419C40.7159 1024.73 34.425 1053.66 25.9586 1082.57C23.1071 1090.7 20.2556 1098.84 17.3747 1106.98C16.5222 1106.89 15.6697 1106.83 14.8172 1106.74C14.8172 1100.84 14.8172 1094.96 14.8172 1089.06C22.1958 1083.86 19.9616 1074.87 23.0189 1067.97C22.3722 1063.56 24.9591 1058.83 21.4903 1053.84C17.8451 1057.22 17.9626 1061.54 17.1983 1065.44C16.3458 1073.34 15.4933 1081.27 14.6702 1089.18L14.6996 1089.15C10.143 1094.02 9.99606 1101.22 3.96967 1106.04C7.08575 1088.35 10.1724 1070.64 13.2591 1052.93ZM330.776 871.195C347.091 854.776 419.379 830.983 441.279 835.565C397.537 868.934 347.209 885.471 298.204 904.593C318.047 886.058 344.416 878.803 368.492 862.706C351.883 856.509 343.593 872.312 330.776 871.195ZM225.094 851.956C235.177 831.6 248.318 813.565 263.192 796.704C269.101 789.978 277.685 779.227 284.976 784.074C292.266 788.891 286.357 801.874 282.565 809.717C272.335 830.748 259.841 850.634 246.642 870.02C235.677 886.146 224.829 902.361 213.923 918.545C202.341 929.002 194.697 942.367 186.731 955.468C183.997 959.962 181.998 964.985 177.324 968.01C191.376 928.532 206.456 889.554 225.094 851.956ZM214.599 965.602C252.492 957.818 290.737 957.201 329.159 960.05C333.951 960.402 340.448 960.461 341.888 965.396C343.77 971.858 336.773 974.237 332.422 976.499C305.73 990.422 277.832 998.089 247.641 990.011C220.743 982.814 194.08 979.113 167.946 992.801C165.653 994.006 163.213 993.653 161.008 992.155C173.561 972.651 194.727 970.448 214.599 965.602ZM177.735 567.004C191.523 606.247 179.205 644.844 176.266 683.587C172.444 701.3 168.593 719.012 164.771 736.724C161.273 748.679 158.128 760.781 150.249 775.056C150.308 702.034 146.869 632.272 177.735 567.004ZM317.547 625.281C331.923 603.897 352.177 587.536 367.493 566.975C397.772 546.531 427.463 525.147 462.181 512.282C475.997 507.171 489.843 503.411 506.306 504.175C497.634 520.418 485.257 532.256 472.146 542.066C436.635 568.708 399.124 592.471 359.644 612.974C355.617 615.059 351.619 616.528 347.062 615.97C342.27 621.169 337.508 626.339 329.394 622.285C325.896 624.723 322.721 628.365 318.87 629.335C313.785 630.657 318.429 626.603 317.547 625.281ZM420.114 641.848C423.847 642.905 427.669 643.64 431.343 644.873C439.574 647.634 440.574 651.57 432.784 656.358C419.849 664.348 405.18 666.551 390.717 665.17C365.229 662.791 340.36 654.684 314.02 655.36C349.208 648.692 382.926 631.244 420.114 641.848ZM307.817 505.878C277.538 467.458 272.776 377.458 290.59 333.515C293.354 349.377 302.761 358.571 294.471 375.225C289.709 384.801 296.47 402.337 298.145 416.26C301.203 441.374 304.642 466.43 307.758 491.544C308.258 495.627 307.817 499.886 307.817 505.878ZM315.607 515.366C314.696 495.363 314.814 475.359 312.521 455.327C310.228 435.294 305.612 415.408 307.935 394.964C316.695 434.677 324.809 474.478 315.607 515.366ZM401.887 225.597C413.734 266.808 405.827 306.962 394.156 346.909C391.187 306.198 400.3 266.103 401.887 225.597ZM378.634 360.069C371.168 350.258 371.991 340.418 369.992 331.488C370.991 309.899 371.991 288.339 372.99 266.749C381.839 244.073 382.456 219.223 390.599 196.371C392.01 196.547 393.392 196.694 394.803 196.87C389.482 250.447 384.19 304.054 378.634 360.069ZM465.561 389.442C469.295 386.799 475.439 388.062 477.996 381.188C466.737 379.015 458.418 388.678 443.866 387.533C474.41 372.611 502.072 363.388 531.969 361.361C534.527 361.185 536.82 361.479 538.378 363.799C508.216 389.325 469.589 397.52 435.077 414.145C439.604 398.959 454.831 396.991 465.561 389.442Z" fill="white"/>
</g>
</g>
<defs>
<clipPath id="clip0_21_12">
<rect width="1024" height="1024" fill="white"/>
</clipPath>
<clipPath id="clip1_21_12">
<rect width="820" height="1554" fill="white" transform="translate(-233 165)"/>
</clipPath>
</defs>
</svg>
