<svg width="800" height="800" viewBox="0 0 800 800" fill="none" xmlns="http://www.w3.org/2000/svg">
<g clip-path="url(#clip0_6340_1045)">
<path d="M94.2314 292.618C78.7945 285.73 65.5408 276.492 54.6544 263.941C37.6748 244.366 30.8054 221.518 30.0582 195.765C28.1468 130.698 76.3592 89.014 117.003 73.8304C141.415 64.7086 166.497 61.9789 191.558 69.4007C227.837 80.1545 251.045 104.761 262.223 140.869C262.359 141.326 262.533 141.763 262.737 142.346C307.097 127.24 352.166 116.224 399.379 116.253C446.379 116.282 491.68 124.52 534.954 143.793C541.358 118.847 555.203 99.2918 575.918 85.2351C607.859 63.5623 642.682 59.0354 678.727 72.8881C720.41 88.9071 751.808 116.496 764.353 160.716C774.065 194.93 772.416 228.639 750.216 258.744C739.359 273.471 725.64 284.739 708.893 292.21C707.864 292.666 706.846 293.142 705.837 293.628C705.72 293.686 705.672 293.871 705.419 294.269C716.878 314.708 726.202 336.293 733.722 358.636C748.557 402.711 755.902 447.96 753.554 494.492C750.42 556.441 724.786 607.597 678.737 648.834C642.799 681.018 600.175 700.116 554.543 713.6C492.65 731.892 429.409 735.914 365.284 733.203C305.467 730.668 247.979 718.642 193.305 694.152C154.058 676.578 119.167 652.836 92.2715 618.593C67.6462 587.255 52.6945 551.603 48.076 512.114C39.1108 435.487 55.4985 363.814 92.223 296.435C92.8342 295.309 93.4164 294.152 94.2411 292.579L94.2314 292.618ZM402.416 711.55C441.188 711.064 479.736 708.383 517.712 699.98C561.102 690.383 602.562 675.928 639.742 650.923C677.476 625.549 705.982 592.617 721.244 549.203C733.683 513.814 734.615 477.298 730.113 440.558C724.815 397.309 712.347 356.12 692.728 317.137C664.406 260.89 624.169 215.67 569.621 183.807C495.998 140.792 417.067 128.736 333.721 144.512C270.945 156.393 216.184 184.759 170.203 228.95C130.791 266.826 103.226 312.726 85.8872 364.572C70.2659 411.308 62.4165 459.064 69.1889 508.49C76.136 559.219 99.3641 601.01 138.213 634.01C170.698 661.608 208.46 679.26 249.056 691.266C299.112 706.071 350.468 711.055 402.416 711.55Z" fill="#191918" style="fill:#191918;fill:color(display-p3 0.0980 0.0980 0.0941);fill-opacity:1;"/>
<path d="M402.416 711.55C350.468 711.055 299.112 706.071 249.066 691.267C208.48 679.26 170.708 661.609 138.223 634.01C99.3835 601.01 76.1554 559.219 69.1986 508.491C62.4262 459.064 70.2756 411.308 85.8969 364.572C103.235 312.717 130.801 266.816 170.213 228.95C216.193 184.769 270.955 156.393 333.731 144.512C417.067 128.746 496.007 140.801 569.631 183.807C624.179 215.68 664.416 260.891 692.738 317.137C712.366 356.121 724.825 397.31 730.122 440.558C734.624 477.298 733.702 513.814 721.254 549.204C705.992 592.617 677.485 625.549 639.752 650.923C602.562 675.928 561.112 690.392 517.722 699.981C479.736 708.374 441.197 711.055 402.426 711.541L402.416 711.55ZM326.735 401.176C326.638 399.505 326.483 396.435 326.27 393.375C324.649 369.896 314.559 350.797 295.454 337.226C274.71 322.489 252.239 323.373 229.641 332.622C210.236 340.558 194.615 353.721 181.468 369.799C162.489 393.006 149.488 418.652 148.1 449.505C146.335 488.634 175.831 522.091 214.806 524.422C242.313 526.064 265.231 515.563 285.14 497.747C313.385 472.47 325.639 439.917 326.735 401.186V401.176ZM650.842 452.274C650.842 449.204 650.978 446.115 650.803 443.055C650.629 439.995 650.357 436.905 649.736 433.913C641.013 392.083 618.067 360.045 581.701 338.207C560.986 325.773 538.282 322.237 515.51 332.67C487.275 345.61 474.642 369.478 473.876 399.456C472.838 439.956 487.207 474.5 518.1 501.156C537.185 517.622 559.23 526.676 585.155 524.461C616.795 521.76 652.899 493.346 650.832 452.274H650.842ZM388.357 512.95C388.357 523.014 389.094 532.738 388.163 542.306C387.144 552.817 374.996 561.075 364.469 559.831C351.283 558.267 342.609 551.224 338.223 538.722C335.73 531.601 330.646 528.531 324.746 530.503C318.75 532.505 316.072 538.712 319.342 545.687C322.457 552.341 326.056 559.025 330.704 564.649C342.599 579.046 364.682 584.574 381.711 577.404C388.221 574.665 393.907 569.973 399.612 566.398C404.221 569.575 408.868 573.771 414.292 576.297C424.422 581.018 435.337 580.892 446.068 578.502C464.911 574.306 476.583 562.017 482.754 544.201C484.84 538.168 481.638 532.184 476.214 530.455C470.878 528.755 465.425 531.727 463.416 537.76C459.138 550.622 450.308 557.529 436.919 559.103C424.053 560.608 412.594 554.624 410.896 543.705C409.334 533.622 409.683 523.247 409.208 513.387C413.254 511.91 416.359 510.997 419.279 509.666C430.854 504.352 440.033 496.659 443.575 483.787C446.194 474.267 442.915 466.991 434.114 462.445C424.645 457.558 414.408 455.421 403.9 454.77C390.336 453.915 377.209 456.033 365.003 462.299C356.959 466.427 353.292 472.654 355.475 481.407C356.969 487.41 360.258 493.346 364.061 498.31C370.213 506.324 379.314 510.375 388.376 512.969L388.357 512.95Z" fill="#FFFEED" style="fill:#FFFEED;fill:color(display-p3 1.0000 0.9961 0.9294);fill-opacity:1;"/>
<path d="M566.225 524.082C577.17 525.102 588.056 524.918 598.661 521.692C616.572 516.243 630.826 505.751 641.227 490.092C641.925 489.033 642.721 488.032 643.468 487.002C654.335 490.917 661.845 498.854 667.705 508.296C690.594 545.201 663.475 586.701 626.789 591.199C598.351 594.686 569.98 575.034 564.712 545.949C563.392 538.683 563.024 531.174 566.235 524.082H566.225Z" fill="#FFBDA9" style="fill:#FFBDA9;fill:color(display-p3 1.0000 0.7412 0.6627);fill-opacity:1;"/>
<path d="M156.726 487.031C167.409 505.557 183.602 516.854 203.832 522.644C207.306 523.635 211.061 523.878 214.699 523.956C221.248 524.092 227.807 523.849 234.366 523.761C238.121 530.999 237.888 538.644 236.365 546.308C231.718 569.73 212.274 587.157 188.706 591.092C157.095 596.376 123.155 568.7 125.28 533.991C126.551 513.289 137.098 497.902 154.844 487.41C155.358 487.099 156.086 487.148 156.716 487.031H156.726Z" fill="#FFBDA9" style="fill:#FFBDA9;fill:color(display-p3 1.0000 0.7412 0.6627);fill-opacity:1;"/>
<path d="M326.735 401.176C325.649 439.907 313.394 472.46 285.14 497.737C265.23 515.553 242.313 526.054 214.806 524.412C175.821 522.081 146.335 488.625 148.1 449.495C149.488 418.642 162.489 392.996 181.468 369.789C194.615 353.711 210.236 340.548 229.641 332.612C252.248 323.373 274.71 322.489 295.454 337.216C314.559 350.787 324.649 369.886 326.27 393.366C326.483 396.426 326.629 399.495 326.735 401.166V401.176ZM262.329 400.836C251.657 400.71 243.05 409.19 242.856 420.051C242.652 430.931 251.298 440.432 261.66 440.733C272.09 441.034 280.852 432.097 281.133 420.877C281.424 409.297 273.614 400.972 262.339 400.836H262.329Z" fill="#191918" style="fill:#191918;fill:color(display-p3 0.0980 0.0980 0.0941);fill-opacity:1;"/>
<path d="M650.842 452.273C652.899 493.355 616.805 521.76 585.165 524.461C559.24 526.676 537.195 517.622 518.11 501.156C487.217 474.5 472.838 439.955 473.886 399.456C474.652 369.478 487.285 345.609 515.52 332.67C538.292 322.237 560.996 325.773 581.711 338.207C618.067 360.035 641.013 392.073 649.746 433.913C650.367 436.905 650.629 439.994 650.813 443.054C650.988 446.114 650.852 449.203 650.852 452.273H650.842ZM557.153 420.711C557.183 409.287 549.333 400.923 538.573 400.894C527.57 400.874 519.42 409.025 519.313 420.167C519.207 431.514 527.541 440.713 538.001 440.771C548.664 440.83 557.124 431.97 557.153 420.711Z" fill="#191918" style="fill:#191918;fill:color(display-p3 0.0980 0.0980 0.0941);fill-opacity:1;"/>
<path d="M388.357 512.95C379.295 510.356 370.194 506.305 364.042 498.291C360.239 493.336 356.949 487.391 355.455 481.388C353.272 472.635 356.94 466.398 364.983 462.279C377.189 456.023 390.317 453.906 403.881 454.751C414.389 455.411 424.625 457.539 434.095 462.425C442.895 466.971 446.175 474.238 443.555 483.768C440.014 496.639 430.835 504.333 419.26 509.647C416.349 510.987 413.234 511.891 409.188 513.367C409.664 523.218 409.315 533.602 410.877 543.686C412.575 554.605 424.033 560.589 436.899 559.083C450.289 557.519 459.118 550.603 463.397 537.741C465.405 531.708 470.858 528.735 476.195 530.435C481.619 532.165 484.83 538.149 482.734 544.181C476.563 561.997 464.891 574.286 446.049 578.483C435.318 580.873 424.402 580.999 414.273 576.278C408.849 573.752 404.201 569.555 399.593 566.379C393.887 569.954 388.202 574.655 381.691 577.385C364.663 584.554 342.57 579.027 330.684 564.63C326.037 559.005 322.437 552.322 319.323 545.668C316.053 538.683 318.731 532.476 324.727 530.484C330.626 528.522 335.71 531.582 338.204 538.702C342.59 551.205 351.264 558.248 364.45 559.812C374.977 561.055 387.125 552.808 388.143 542.287C389.075 532.718 388.337 522.994 388.337 512.93L388.357 512.95Z" fill="#191918" style="fill:#191918;fill:color(display-p3 0.0980 0.0980 0.0941);fill-opacity:1;"/>
<path d="M262.329 400.836C273.604 400.962 281.415 409.287 281.123 420.877C280.842 432.097 272.081 441.034 261.65 440.733C251.288 440.432 242.643 430.931 242.847 420.051C243.05 409.2 251.647 400.71 262.32 400.836H262.329Z" fill="#FFFEED" style="fill:#FFFEED;fill:color(display-p3 1.0000 0.9961 0.9294);fill-opacity:1;"/>
<path d="M557.153 420.711C557.124 431.97 548.664 440.83 538.001 440.772C527.551 440.713 519.207 431.524 519.313 420.167C519.42 409.025 527.57 400.875 538.573 400.894C549.333 400.914 557.183 409.287 557.153 420.711Z" fill="#FFFEED" style="fill:#FFFEED;fill:color(display-p3 1.0000 0.9961 0.9294);fill-opacity:1;"/>
</g>
<defs>
<clipPath id="clip0_6340_1045">
<rect width="740" height="669" fill="white" style="fill:white;fill-opacity:1;" transform="translate(30 65)"/>
</clipPath>
</defs>
</svg>
